HIERARCHY
ROOT Hips
{
 OFFSET 0.000000 0.000000 0.000000
 CHANNELS 6 Xposition Yposition Zposition Yrotation Xrotation Zrotation
 JOINT Chest
 {
  OFFSET 0.000000 14.374500 -0.011500
  CHANNELS 3 Yrotation Xrotation Zrotation
  JOINT Chest2
  {
   OFFSET 0.000000 9.203400 0.023400
   CHANNELS 3 Yrotation Xrotation Zrotation
   JOINT Chest3
   {
    OFFSET 0.000000 9.162700 0.000000
    CHANNELS 3 Yrotation Xrotation Zrotation
    JOINT Chest4
    {
     OFFSET 0.000000 9.153300 0.000000
     CHANNELS 3 Yrotation Xrotation Zrotation
     JOINT Neck
     {
      OFFSET 0.000000 13.353600 0.000000
      CHANNELS 3 Yrotation Xrotation Zrotation
      JOINT Head
      {
       OFFSET 0.000000 8.573800 0.049400
       CHANNELS 3 Yrotation Xrotation Zrotation
       End Site
       {
        OFFSET 0.000000 16.219200 0.026100
       }
      }
     }
     JOINT RightCollar
     {
      OFFSET -2.497100 8.876100 0.000000
      CHANNELS 3 Yrotation Xrotation Zrotation
      JOINT RightShoulder
      {
       OFFSET -12.289200 0.000000 0.000000
       CHANNELS 3 Yrotation Xrotation Zrotation
       JOINT RightElbow
       {
        OFFSET 0.000000 -28.194900 0.000000
        CHANNELS 3 Yrotation Xrotation Zrotation
        JOINT RightWrist
        {
         OFFSET 0.000000 -23.009700 0.007900
         CHANNELS 3 Yrotation Xrotation Zrotation
         End Site
         {
          OFFSET 0.000000 -17.151500 0.000000
         }
        }
       }
      }
     }
     JOINT LeftCollar
     {
      OFFSET 2.497100 8.876100 0.000000
      CHANNELS 3 Yrotation Xrotation Zrotation
      JOINT LeftShoulder
      {
       OFFSET 12.289200 0.000000 0.000000
       CHANNELS 3 Yrotation Xrotation Zrotation
       JOINT LeftElbow
       {
        OFFSET 0.000000 -28.194900 0.000000
        CHANNELS 3 Yrotation Xrotation Zrotation
        JOINT LeftWrist
        {
         OFFSET 0.000000 -23.009700 0.007900
         CHANNELS 3 Yrotation Xrotation Zrotation
         End Site
         {
          OFFSET 0.000000 -17.151500 0.000000
         }
        }
       }
      }
     }
    }
   }
  }
 }
 JOINT RightHip
 {
  OFFSET -11.777600 0.056700 0.005700
  CHANNELS 3 Yrotation Xrotation Zrotation
  JOINT RightKnee
  {
   OFFSET 0.000000 -39.966000 -0.004200
   CHANNELS 3 Yrotation Xrotation Zrotation
   JOINT RightAnkle
   {
    OFFSET 0.000000 -41.981900 0.027400
    CHANNELS 3 Yrotation Xrotation Zrotation
    JOINT RightToe
    {
     OFFSET 0.000000 -9.910600 16.950100
     CHANNELS 3 Yrotation Xrotation Zrotation
     End Site
     {
      OFFSET 0.000000 -1.461000 6.191600
     }
    }
   }
  }
 }
 JOINT LeftHip
 {
  OFFSET 11.777600 0.056700 0.005700
  CHANNELS 3 Yrotation Xrotation Zrotation
  JOINT LeftKnee
  {
   OFFSET 0.000000 -39.966000 -0.004200
   CHANNELS 3 Yrotation Xrotation Zrotation
   JOINT LeftAnkle
   {
    OFFSET 0.000000 -41.981900 0.027400
    CHANNELS 3 Yrotation Xrotation Zrotation
    JOINT LeftToe
    {
     OFFSET 0.000000 -9.910600 16.950100
     CHANNELS 3 Yrotation Xrotation Zrotation
     End Site
     {
      OFFSET 0.000000 -1.461000 6.191600
     }
    }
   }
  }
 }
}
MOTION
Frames: 9
Frame Time: 0.008333
-3.817574 130.452823 78.744808 174.901437 -49.099161 -3.225037 5.872139 28.251635 5.402519 0.851504 5.292882 0.745747 1.389648 8.327620 1.226235 4.391323 22.732630 3.990283 2.183560 13.797660 -1.375211 2.599545 -11.207711 -1.936091 2.597506 -8.236701 1.210683 13.136973 -3.975850 -15.428566 -155.010310 -40.343584 -177.616103 23.438742 -13.462712 -56.037020 -10.680408 -9.654522 -0.667746 -6.512283 -10.094205 11.173579 148.906738 -44.207174 179.554263 -34.503034 -37.305986 67.872785 6.624459 -28.822279 4.781869 -73.314999 82.766090 -78.374409 0.753692 -23.708584 10.179201 0.019346 -0.005462 0.011311 -0.210705 -27.435312 -3.665299 146.474496 69.087907 156.025699 -2.807991 9.025399 -7.761712 0.018774 -0.005491 0.010976
-3.820162 130.454189 78.740807 174.887700 -49.093184 -3.240304 5.886027 28.236626 5.421347 0.829720 5.249046 0.723352 1.388238 8.299794 1.223244 4.394361 22.701386 3.988504 2.143599 13.754944 -1.318183 2.543345 -11.253396 -1.866224 2.556234 -8.260472 1.186939 13.158696 -4.099318 -15.402758 -155.205855 -40.375058 -177.521351 23.443333 -13.466075 -55.967681 -10.622887 -9.672832 -0.665714 -6.551180 -10.114590 11.107895 149.019192 -44.204940 179.473590 -34.421747 -37.399763 67.631751 6.614220 -28.831746 4.790864 -73.264386 82.770748 -78.289761 0.751975 -23.689240 10.149126 0.045281 -0.011688 0.026472 -0.235213 -27.443155 -3.654564 146.459861 69.074326 156.010981 -2.825743 9.034532 -7.761180 0.019356 -0.006713 0.011317
-3.828965 130.453219 78.737924 174.862154 -49.076920 -3.225815 5.871723 28.189023 5.384629 0.826633 5.226755 0.716666 1.379284 8.251026 1.212450 4.410374 22.688096 3.994385 2.098356 13.725019 -1.254279 2.479936 -11.286029 -1.787981 2.504496 -8.269592 1.168313 13.160812 -4.230739 -15.363420 -155.407971 -40.408771 -177.416939 23.458385 -13.474657 -55.863779 -10.561640 -9.673264 -0.658713 -6.554931 -10.116378 11.055372 149.091659 -44.168513 179.392716 -34.320996 -37.545506 67.315964 6.615773 -28.851685 4.763969 -73.200350 82.798238 -78.210681 0.788315 -23.691350 10.141742 0.022014 -0.007857 0.012871 -0.244705 -27.462994 -3.692454 146.392642 69.047934 155.941690 -2.813048 9.040654 -7.749625 -0.004484 -0.000323 -0.002622
-3.827930 130.450603 78.738322 174.801688 -49.051950 -3.228055 5.863049 28.089669 5.337635 0.856945 5.242039 0.745396 1.387426 8.243309 1.219582 4.406516 22.633828 3.978845 2.042574 13.706877 -1.181221 2.403252 -11.306822 -1.697787 2.443935 -8.266164 1.156309 13.136596 -4.367319 -15.314182 -155.606447 -40.444117 -177.303306 23.488389 -13.488272 -55.731247 -10.501561 -9.657222 -0.644143 -6.542140 -10.129553 11.009700 149.118983 -44.138239 179.321293 -34.207782 -37.725964 66.955583 6.601485 -28.885410 4.754284 -73.018764 82.859871 -78.018586 0.836589 -23.688648 10.140772 -0.009250 -0.005622 -0.005408 -0.238332 -27.489827 -3.660071 146.413241 69.037254 155.989180 -2.810357 9.039814 -7.777613 -0.002359 -0.001907 -0.001379
-3.822806 130.451531 78.736546 174.788554 -49.044422 -3.283718 5.870320 28.039670 5.356582 0.857451 5.222288 0.742775 1.413288 8.278442 1.249326 4.378470 22.538447 3.937519 1.972306 13.700243 -1.100056 2.309315 -11.316044 -1.595635 2.376487 -8.254021 1.149224 13.085464 -4.506014 -15.254787 -155.804547 -40.484633 -177.176719 23.530851 -13.503454 -55.580618 -10.458797 -9.583820 -0.626395 -6.514011 -10.197385 10.985386 149.102436 -44.119301 179.260589 -34.090731 -37.921272 66.588246 6.561553 -28.899671 4.785518 -72.906175 82.871212 -77.826581 0.867894 -23.671010 10.093162 0.010714 -0.005178 0.006264 -0.266537 -27.495953 -3.601781 146.525157 69.038768 156.168305 -2.806647 9.025205 -7.878338 0.029033 -0.005943 0.016974
-3.829216 130.452000 78.733511 174.766305 -49.038680 -3.287723 5.858252 27.997374 5.323196 0.875325 5.229715 0.761034 1.399591 8.220414 1.225970 4.405764 22.564307 3.960114 1.863114 13.650886 -1.036692 2.200217 -11.312734 -1.487126 2.290963 -8.293115 1.123156 13.014020 -4.644770 -15.185499 -156.000914 -40.531038 -177.037721 23.581724 -13.515146 -55.417199 -10.415072 -9.629036 -0.611398 -6.507266 -10.205077 10.960460 149.050631 -44.110330 179.210745 -33.975098 -38.116709 66.243237 6.553310 -28.907873 4.774968 -72.818896 82.899674 -77.721869 0.895342 -23.668110 10.072668 0.002587 -0.007944 0.001512 -0.272954 -27.499566 -3.608805 146.517120 69.027894 156.185460 -2.810643 9.024131 -7.906588 0.033274 -0.002489 0.019454
-3.825433 130.450549 78.734248 174.703721 -49.023770 -3.304233 5.888862 27.943702 5.335226 0.866667 5.198163 0.746960 1.415085 8.200229 1.229590 4.392679 22.514878 3.943031 1.778574 13.697527 -0.944935 2.079611 -11.297124 -1.379720 2.234620 -8.247564 1.125652 12.931737 -4.783469 -15.107962 -156.194275 -40.581576 -176.890821 23.631482 -13.525162 -55.243126 -10.347610 -9.580775 -0.585575 -6.505618 -10.221590 10.948820 148.967525 -44.114917 179.174844 -33.870446 -38.299662 65.934858 6.551342 -28.933085 4.819609 -72.719078 82.920260 -77.602820 0.918662 -23.661763 10.073926 -0.006180 -0.005999 -0.003613 -0.277368 -27.514270 -3.566068 146.516731 69.013869 156.208751 -2.810277 9.026589 -7.906534 0.029918 -0.002812 0.017492
-3.826360 130.450641 78.733203 174.666722 -49.018957 -3.321465 5.887302 27.906529 5.325224 0.855999 5.170218 0.733653 1.391117 8.133367 1.201373 4.424350 22.519749 3.957208 1.687307 13.752976 -0.862201 1.951685 -11.269704 -1.278641 2.189610 -8.202134 1.122110 12.846226 -4.923224 -15.026429 -156.381409 -40.634596 -176.743185 23.673927 -13.538575 -55.075122 -10.292800 -9.517760 -0.566430 -6.501740 -10.262956 10.954014 148.855662 -44.145362 179.156957 -33.783086 -38.454509 65.662305 6.548233 -28.944764 4.854697 -72.631474 82.924474 -77.473925 0.927200 -23.647219 10.054793 0.010057 -0.004577 0.005880 -0.283877 -27.520809 -3.548419 146.479412 68.994812 156.182266 -2.798477 9.029715 -7.895212 0.017306 -0.003112 0.010118
-3.826765 130.450434 78.732918 174.627010 -49.014540 -3.339683 5.882433 27.872241 5.316078 0.868295 5.166145 0.740725 1.361232 8.088070 1.176874 4.438342 22.514813 3.959110 1.577972 13.793868 -0.797525 1.821405 -11.230155 -1.185447 2.142793 -8.177847 1.106673 12.763087 -5.066082 -14.945713 -156.547578 -40.689503 -176.605447 23.709593 -13.556539 -54.934067 -10.260308 -9.488655 -0.556763 -6.503998 -10.300677 10.973420 148.729097 -44.205017 179.153332 -33.705951 -38.571688 65.418389 6.536514 -28.959596 4.862495 -72.522071 82.948113 -77.288761 0.952667 -23.632867 9.994673 0.025572 -0.002768 0.014951 -0.291317 -27.522449 -3.567650 146.385490 68.959494 156.126016 -2.767820 9.021381 -7.938002 0.000635 -0.000893 0.000372
